<?xml version="1.0" standalone="no"?>
<!DOCTYPE svg PUBLIC "-//W3C//DTD SVG 20010904//EN"
 "http://www.w3.org/TR/2001/REC-SVG-20010904/DTD/svg10.dtd">
<svg version="1.0" xmlns="http://www.w3.org/2000/svg"
 width="802.000000pt" height="802.000000pt" viewBox="0 0 802.000000 802.000000"
 preserveAspectRatio="xMidYMid meet">

<g transform="translate(0.000000,802.000000) scale(0.100000,-0.100000)"
fill="#000000" stroke="none">
<path d="M4660 7850 c-222 -17 -574 -42 -1660 -115 -201 -14 -466 -31 -590
-39 -160 -11 -244 -21 -288 -35 -159 -49 -277 -179 -312 -341 -8 -41 -10 -453
-8 -1625 l3 -1570 27 -69 c14 -38 42 -92 62 -120 19 -28 185 -200 368 -382
295 -293 340 -335 398 -362 117 -55 197 -58 660 -23 69 6 173 13 233 17 l107
6 0 -38 c-1 -169 -106 -372 -255 -493 -128 -104 -250 -153 -565 -226 -113 -26
-243 -61 -290 -77 -180 -63 -344 -169 -460 -296 -116 -126 -296 -423 -288
-475 7 -49 42 -31 174 89 215 195 355 290 518 352 84 32 260 76 277 70 4 -2
-5 -32 -20 -68 -41 -98 -58 -169 -82 -350 -11 -91 -30 -199 -40 -240 -31 -119
-92 -236 -172 -329 -29 -34 -29 -34 -9 -53 19 -20 21 -20 58 -2 22 10 80 59
131 109 82 83 97 104 146 206 38 77 70 167 101 279 59 213 115 328 199 414 78
79 119 106 292 196 237 123 374 231 474 370 l46 65 3 -179 c3 -201 -3 -232
-66 -345 -35 -65 -98 -131 -334 -356 -117 -111 -170 -179 -234 -299 -59 -112
-89 -223 -124 -464 -28 -194 -57 -327 -94 -431 -20 -55 -20 -58 3 -71 29 -15
44 -5 96 61 70 89 139 228 185 374 133 420 196 517 459 707 69 51 143 105 164
122 46 36 47 35 76 -78 56 -230 54 -367 -14 -631 -64 -252 -75 -321 -75 -460
0 -131 17 -244 50 -332 48 -128 79 -165 117 -138 19 13 19 17 6 97 -10 55 -13
126 -9 213 5 153 27 243 106 441 103 257 121 324 148 566 l7 67 130 -111 c200
-171 251 -232 325 -391 35 -76 50 -121 109 -324 19 -65 24 -73 46 -73 42 0 48
28 42 204 -12 342 -87 501 -373 798 -298 309 -364 461 -364 835 l0 165 42 -63
c94 -140 232 -254 436 -359 170 -87 260 -158 351 -280 67 -89 124 -196 180
-338 82 -207 167 -347 279 -460 97 -99 178 -140 203 -101 13 21 13 21 -46 100
-104 141 -159 272 -210 509 -37 169 -87 320 -135 403 -22 38 -40 70 -40 72 0
8 105 -11 179 -32 227 -65 397 -185 573 -405 53 -68 75 -88 94 -88 35 0 39 22
20 94 -60 219 -210 434 -391 556 -144 97 -285 152 -505 195 -356 70 -462 115
-596 250 -115 115 -177 260 -190 437 l-7 86 54 6 c57 6 254 20 890 61 410 27
448 33 543 89 84 50 161 144 199 244 l22 57 0 1595 c0 1546 -1 1597 -19 1654
-39 118 -75 158 -332 368 -413 337 -567 459 -609 484 -126 73 -232 83 -605 54z
m470 -349 c24 -13 70 -44 101 -70 287 -235 369 -306 369 -316 0 -9 -33 -15
-107 -19 -60 -4 -200 -14 -313 -21 -316 -22 -485 -34 -730 -50 -124 -8 -502
-33 -840 -56 -338 -22 -651 -39 -696 -37 -112 6 -156 30 -351 193 -172 142
-186 161 -144 199 33 30 98 35 1306 116 443 30 1126 79 1155 84 14 2 66 3 115
2 72 -2 99 -7 135 -25z m700 -746 c16 -8 35 -25 42 -38 10 -17 14 -319 16
-1484 3 -1606 6 -1515 -57 -1548 -40 -20 51 -13 -2121 -155 -80 -5 -282 -19
-450 -30 -168 -12 -323 -19 -344 -15 -57 8 -94 34 -116 80 -20 41 -20 67 -20
1494 l0 1453 28 28 c33 33 45 35 292 50 345 20 952 61 1365 91 231 16 528 37
660 45 132 8 312 21 400 28 224 18 271 19 305 1z"/>
<path d="M4980 6094 c-172 -13 -649 -44 -1295 -85 -350 -21 -376 -26 -415 -77
-59 -74 -38 -183 43 -232 40 -25 104 -25 412 -5 121 8 506 32 855 54 349 23
654 43 677 46 152 21 197 218 67 292 -46 27 -79 27 -344 7z"/>
<path d="M4975 5355 c-256 -19 -620 -43 -830 -55 -583 -34 -791 -51 -825 -68
-108 -53 -108 -214 0 -274 43 -24 55 -24 840 27 1096 70 1114 71 1154 90 57
27 81 69 81 140 0 70 -24 113 -79 139 -40 19 -86 19 -341 1z"/>
<path d="M3955 4550 c-137 -10 -331 -23 -430 -30 -192 -13 -219 -20 -257 -71
-59 -79 -27 -202 62 -239 35 -15 78 -13 610 20 310 19 350 24 390 43 48 24 90
87 90 137 0 49 -42 113 -90 138 -51 25 -39 25 -375 2z"/>
</g>
</svg>
