<?xml version="1.0" encoding="UTF-8"?>
<svg version="1.1" xmlns="http://www.w3.org/2000/svg" width="802" height="802">
<path d="M0 0 C1.15822266 0.90878906 1.15822266 0.90878906 2.33984375 1.8359375 C5.51129229 4.33721305 8.63893837 6.89087557 11.77001953 9.44238281 C13.76301867 11.06615797 15.75645709 12.68939249 17.75 14.3125 C18.43650635 14.87211426 19.1230127 15.43172852 19.83032227 16.00830078 C24.22161205 19.57998604 28.6557378 23.08914725 33.125 26.5625 C38.4712445 30.72346364 43.62557702 35.06886964 48.73950195 39.51098633 C52.83657128 43.0518976 57.03490175 46.43023692 61.3125 49.75 C73.64116735 59.38559434 83.05916781 68.24608771 87 84 C88.67672932 98.53747123 88.15677408 113.36938022 88.16004276 127.97635889 C88.16191845 131.59461681 88.16947714 135.21286412 88.17617798 138.83111572 C88.18965315 146.71089438 88.19576714 154.59066788 88.20018864 162.47045612 C88.20296591 167.39928861 88.20720549 172.32811919 88.21169281 177.25695038 C88.2238645 190.93323264 88.23417234 204.60951338 88.2375679 218.28580093 C88.23778747 219.15778173 88.23800703 220.02976252 88.23823325 220.92816697 C88.23845153 221.8020628 88.23866981 222.67595863 88.2388947 223.57633615 C88.23933815 225.3467892 88.23978471 227.11724226 88.24023438 228.88769531 C88.2404558 229.76587495 88.24067723 230.64405459 88.24090537 231.54884574 C88.2448587 245.79769701 88.26233839 260.04649732 88.2855939 274.29532889 C88.30933714 288.96236282 88.32177087 303.62937117 88.32293582 318.29642463 C88.32385017 326.51655604 88.3295432 334.73662075 88.34775543 342.9567337 C88.36319569 349.94944841 88.36825327 356.94207571 88.36001733 363.93480423 C88.35612655 367.49701754 88.35696337 371.05905498 88.37107468 374.62124634 C88.38627367 378.49352351 88.37790205 382.36555684 88.36749268 386.237854 C88.37957728 387.90291343 88.37957728 387.90291343 88.39190602 389.60161042 C88.33082487 399.3660361 87.06412543 409.52997617 82 418.0625 C81.2575 419.34833984 81.2575 419.34833984 80.5 420.66015625 C79.082237 422.87171884 77.70201172 424.99736121 76 427 C75.34 427 74.68 427 74 427 C74 427.66 74 428.32 74 429 C58.02053382 443.03519653 39.34331905 443.22099145 19.1875 444.4375 C17.1680163 444.56383213 15.14856701 444.69071531 13.12915039 444.81811523 C7.82737599 445.15124489 2.52520286 445.4775219 -2.77709961 445.80212402 C-8.07558677 446.12743452 -13.37372948 446.45824163 -18.671875 446.7890625 C-20.22137093 446.88580261 -20.22137093 446.88580261 -21.8021698 446.98449707 C-23.86781941 447.11346528 -25.93346782 447.24245276 -27.99911499 447.37145996 C-31.03949346 447.56106526 -34.07992255 447.74984103 -37.12036133 447.93847656 C-52.41864172 448.88949051 -67.71123087 449.90598093 -83 451 C-81.40784613 471.42296897 -77.12073826 490.6283138 -61.40234375 505.1328125 C-58.35118155 507.50428491 -55.21249508 509.63819195 -51.9375 511.6875 C-51.3791748 512.04432861 -50.82084961 512.40115723 -50.24560547 512.76879883 C-38.88413488 519.50250288 -25.56330568 521.91784228 -12.76959229 524.39498901 C11.3540642 529.10772211 33.97168249 535.08947131 53.08203125 551.37109375 C55.1090768 553.15636347 55.1090768 553.15636347 58 555 C58 555.66 58 556.32 58 557 C58.99 557.33 59.98 557.66 61 558 C73.67447456 571.39085791 84.02793998 589.66501211 87 608 C86.59375 610.93359375 86.59375 610.93359375 86 613 C83.33984375 613.375 83.33984375 613.375 80 613 C77.87973701 611.02149001 76.29125996 609.27635636 74.5625 607 C73.59801471 605.79658762 72.63317187 604.59346172 71.66796875 603.390625 C71.20825684 602.80474609 70.74854492 602.21886719 70.27490234 601.61523438 C67.65127656 598.29123817 64.8508249 595.12942824 62 592 C61.3503125 591.28457031 60.700625 590.56914063 60.03125 589.83203125 C44.84323123 573.8460912 22.92609516 563.28245066 1 561 C1.26425781 561.52335938 1.52851562 562.04671875 1.80078125 562.5859375 C2.39439453 563.78089844 2.39439453 563.78089844 3 565 C3.48855469 565.98226562 3.97710938 566.96453125 4.48046875 567.9765625 C11.42971318 582.58123378 15.0968032 598.3322687 18.60180664 614.06152344 C22.67358986 632.29931454 29.84958748 648.04353226 41.62890625 662.6953125 C43 665 43 665 42.77734375 667.2421875 C42 669 42 669 41 670 C33.76862275 670.68954453 30.35407573 667.96571851 24.98828125 663.6171875 C9.31553328 649.89072849 0.08093471 632.16785554 -7.61181641 613.1796875 C-20.02009374 582.55949326 -36.40396713 563.6318097 -65.75 548.4375 C-82.79244387 539.55880427 -95.86664186 527.49310237 -107 512 C-107.55803105 543.15673357 -104.5088309 569.9694441 -83 594 C-81.97132813 595.19109375 -81.97132813 595.19109375 -80.921875 596.40625 C-75.72679176 602.33249311 -70.18165746 607.87697564 -64.52075195 613.35473633 C-62.97752224 614.86696982 -61.48392494 616.42953037 -60 618 C-60 618.66 -60 619.32 -60 620 C-59.34 620 -58.68 620 -58 620 C-56.76660156 621.37011719 -56.76660156 621.37011719 -55.390625 623.296875 C-54.8860376 624.00199219 -54.3814502 624.70710937 -53.86157227 625.43359375 C-53.32975342 626.19800781 -52.79793457 626.96242188 -52.25 627.75 C-51.70722412 628.52988281 -51.16444824 629.30976562 -50.60522461 630.11328125 C-37.65286192 649.01536186 -32.93344295 669.26885402 -32.75 692 C-32.74057373 692.88461914 -32.73114746 693.76923828 -32.72143555 694.68066406 C-32.7474059 699.83749341 -33.32794568 704.11653976 -35 709 C-36.98 709 -38.96 709 -41 709 C-44.12074654 703.49169435 -45.58991727 697.70579518 -47.25 691.625 C-51.74006274 675.74963525 -57.4893522 660.93618191 -68 648 C-68 647.34 -68 646.68 -68 646 C-68.66 646 -69.32 646 -70 646 C-71.34352655 644.34153927 -72.6750659 642.67335148 -74 641 C-75.60615901 639.57885764 -77.25545608 638.2054588 -78.9375 636.875 C-83.9595652 632.85464053 -88.87935977 628.73390119 -93.75952148 624.54248047 C-96.69709216 622.00619413 -96.69709216 622.00619413 -100 620 C-99.95359375 620.93457031 -99.9071875 621.86914062 -99.859375 622.83203125 C-99.24651115 645.13589785 -107.12091539 664.66323492 -115 685.21875 C-122.60178415 705.16817248 -126.82434736 723.98544493 -123.47265625 745.31640625 C-122.96085685 749.30505781 -122.85609979 752.9838759 -123 757 C-124 758 -124 758 -126.6875 758.625 C-130.49809508 757.9060198 -130.87494283 757.45814241 -133.0625 754.4375 C-145.94810905 732.92766442 -145.85710385 703.66782985 -140 680 C-138.3025688 673.24666172 -136.58035725 666.49998434 -134.78125 659.77294922 C-134.60667267 659.11601074 -134.43209534 658.45907227 -134.25222778 657.78222656 C-133.77155901 655.97746818 -133.28608175 654.17399243 -132.80029297 652.37060547 C-128.14269308 632.75412466 -130.29854923 610.8968837 -137 592 C-141.21808569 594.42060599 -145.09606781 597.17636968 -149 600.0625 C-149.65137939 600.54130615 -150.30275879 601.0201123 -150.97387695 601.51342773 C-156.48801645 605.58270362 -161.90565933 609.7686001 -167.29296875 614.00390625 C-170 616 -170 616 -172.23828125 617.02734375 C-174.54271283 618.29963524 -174.9278322 619.63505373 -176 622 C-177.02984108 623.19559387 -178.09568795 624.36071786 -179.1875 625.5 C-189.82194733 637.54356665 -194.31963404 652.66122432 -199.16015625 667.6640625 C-212.78524347 709.80876052 -212.78524347 709.80876052 -228 721 C-230.4375 720.1875 -230.4375 720.1875 -233 719 C-234.11316935 715.66049195 -233.94201467 715.16059873 -232.8125 712.00390625 C-227.52856731 696.19872226 -224.90553666 680.38341224 -222.57421875 663.92602539 C-220.53511984 649.79445772 -218.02887883 635.43973998 -211.25 622.6875 C-210.91202393 622.03491211 -210.57404785 621.38232422 -210.22583008 620.70996094 C-202.16910605 605.62644462 -189.85653864 593.0750817 -177 582 C-162.75308064 569.72088718 -149.76904372 556.63105495 -147.203125 537.1015625 C-146.53045891 527.78659947 -147.42441341 518.30379978 -148 509 C-148.28222412 509.60996826 -148.56444824 510.21993652 -148.85522461 510.84838867 C-150.41985345 513.78911675 -152.60171781 515.69946439 -155 518 C-155.79277344 518.83917969 -156.58554687 519.67835938 -157.40234375 520.54296875 C-170.31994744 534.01788046 -185.85949791 542.95949268 -202.46875 551.2421875 C-215.86970317 557.97181284 -227.30275081 565.71638159 -235 579 C-235.43441406 579.73089844 -235.86882812 580.46179688 -236.31640625 581.21484375 C-241.55381774 590.81950119 -244.61674498 601.74646476 -247.43359375 612.26953125 C-253.43000916 634.65546775 -263.1739156 653.3473407 -281.6875 668.125 C-285.49611722 670.28082107 -287.69059297 670.59148724 -292 670 C-292.66 669.34 -293.32 668.68 -294 668 C-293.67666613 664.56984941 -292.22749973 662.90524636 -289.875 660.5 C-275.92579997 644.97865652 -272.93994971 625.58349565 -270.29296875 605.71484375 C-268.42926099 591.83680983 -266.23767611 578.69812636 -260 566 C-290.68481435 570.32929311 -313.74717988 584.97790387 -336 606 C-338.04662005 607.83174256 -340.10967136 609.63870699 -342.1953125 611.42578125 C-343.44677547 612.51742535 -344.66934678 613.64274094 -345.8671875 614.79296875 C-347.52886619 616.35123825 -349.07761475 617.77751229 -351 619 C-353.9375 618.875 -353.9375 618.875 -356 618 C-357.22193865 614.4953188 -357.02430852 613.0629747 -355.6640625 609.5390625 C-355.00091164 608.22589248 -354.32005996 606.92156324 -353.625 605.625 C-353.07525513 604.5721582 -353.07525513 604.5721582 -352.5144043 603.49804688 C-351.36329496 601.32033844 -350.1862635 599.15873232 -349 597 C-348.65114746 596.35643555 -348.30229492 595.71287109 -347.94287109 595.04980469 C-332.43489538 566.75273608 -308.37987685 545.04023857 -277.33203125 535.5 C-266.01229468 532.21497072 -254.46986146 529.69791521 -243 527 C-218.49684509 521.23091321 -195.30020857 512.43899786 -181.01171875 490.375 C-175.44060981 481.02851821 -172.48514806 471.49163057 -171.453125 460.7265625 C-171.36708008 459.83791504 -171.28103516 458.94926758 -171.19238281 458.03369141 C-171.12889648 457.36257324 -171.06541016 456.69145508 -171 456 C-171.92326584 456.06486099 -172.84653168 456.12972198 -173.79777527 456.19654846 C-182.54920145 456.80965689 -191.30120329 457.41360303 -200.05395031 458.00756931 C-204.55252228 458.31316124 -209.05080492 458.62214417 -213.54858398 458.93920898 C-217.8987724 459.24573873 -222.24951216 459.54292701 -226.60076332 459.83396721 C-228.25094246 459.94592842 -229.9009067 460.06111056 -231.55061913 460.17975044 C-251.6171538 461.617822 -266.92558272 460.37559368 -283 447 C-287.9929622 442.53004805 -292.69581115 437.75188939 -297.42578125 433.0078125 C-298.78538073 431.65278563 -300.14534771 430.2981274 -301.50566101 428.94381714 C-304.33864386 426.11971341 -307.16595964 423.29008419 -309.98950195 420.45654297 C-313.58960363 416.84492961 -317.20536452 413.24946354 -320.82575703 409.65820503 C-323.63226621 406.87012483 -326.42931688 404.07270183 -329.22377586 401.27254868 C-330.55262615 399.94354615 -331.88453805 398.61759692 -333.21969032 397.29492569 C-340.19692469 390.37380456 -346.5617045 383.8954529 -351 375 C-351.38219193 374.30649445 -351.76438385 373.61298889 -352.15815735 372.89846802 C-357.43118047 362.52250266 -357.29841112 350.17317113 -357.26069641 338.78024292 C-357.26452196 337.52718074 -357.26834751 336.27411856 -357.27228898 334.9830848 C-357.28246177 331.54896907 -357.28041501 328.11495898 -357.27610838 324.68083501 C-357.27362154 320.9602876 -357.28267919 317.23976437 -357.29014587 313.51922607 C-357.30283907 306.24860476 -357.30469347 298.97802047 -357.30234561 291.70738994 C-357.30055693 285.79535138 -357.30232382 279.883324 -357.30657005 273.97128677 C-357.30716524 273.12738777 -357.30776043 272.28348876 -357.30837366 271.41401706 C-357.30958549 269.69926531 -357.31079963 267.98451356 -357.31201603 266.26976182 C-357.32286997 250.22188014 -357.32073875 234.17401952 -357.31463119 218.12613668 C-357.30945893 203.46255848 -357.32072945 188.79904665 -357.33972941 174.13548158 C-357.35912321 159.05156862 -357.36736142 143.96768703 -357.36360615 128.88376153 C-357.3616971 120.42608524 -357.36415324 111.96846548 -357.37832069 103.51079941 C-357.39025483 96.31412813 -357.39161631 89.11754824 -357.37953053 81.92087565 C-357.37365727 78.25349975 -357.37249927 74.58629085 -357.38453293 70.91892624 C-357.39745489 66.93441619 -357.38689124 62.95030065 -357.3742218 58.96578979 C-357.38159609 57.81966339 -357.38897037 56.67353698 -357.39656812 55.49267948 C-357.3020245 41.30856019 -353.6346846 28.69495329 -343.8125 18.1875 C-331.26391097 6.41793412 -316.57021374 4.55646018 -300.1484375 3.53125 C-298.34655982 3.41016143 -296.54475259 3.28802085 -294.74301147 3.16491699 C-290.86647434 2.90217468 -286.98955574 2.64658347 -283.11218262 2.39648438 C-276.90885978 1.99598277 -270.70683797 1.57733025 -264.50488281 1.15625 C-252.34313414 0.33285513 -240.18027481 -0.47327263 -228.01715088 -1.27606201 C-217.92016702 -1.94262972 -207.82332856 -2.61139196 -197.7265625 -3.28125 C-196.63649273 -3.35353317 -195.54642296 -3.42581635 -194.42332077 -3.50028992 C-174.82947847 -4.80063349 -155.23966108 -6.15484563 -135.65114975 -7.53292847 C-129.35377781 -7.97583698 -123.05602018 -8.4128751 -116.7578125 -8.84375 C-115.93356277 -8.90016663 -115.10931305 -8.95658325 -114.26008606 -9.01470947 C-110.09648416 -9.29899599 -105.93269787 -9.58045218 -101.76879883 -9.86035156 C-99.91747654 -9.98496775 -98.06615821 -10.10964266 -96.21484375 -10.234375 C-95.30622086 -10.29554504 -94.39759796 -10.35671509 -93.46144104 -10.41973877 C-87.58794555 -10.81762604 -81.71615663 -11.23552962 -75.84490967 -11.6652832 C-71.77401405 -11.96206157 -67.70257355 -12.25090478 -63.63104248 -12.53881836 C-61.70194131 -12.67721988 -59.77309147 -12.81918087 -57.84454346 -12.96508789 C-35.87981015 -14.6239018 -17.88289627 -14.57933834 0 0 Z M-68.3828125 23.21484375 C-70.1513219 23.34794249 -71.91988914 23.4802746 -73.68850708 23.61192322 C-77.49955588 23.89676136 -81.31025319 24.18578865 -85.12072754 24.47821045 C-94.53322575 25.19993271 -103.94749641 25.89796617 -113.36172485 26.59669495 C-115.62983008 26.76507623 -117.89791662 26.93370935 -120.16598511 27.10258484 C-140.37998412 28.60675831 -160.59878253 30.03514159 -180.8203125 31.43359375 C-181.55639252 31.48450472 -182.29247254 31.53541568 -183.05085802 31.58786941 C-194.11704684 32.35303583 -205.18348581 33.11455575 -216.25 33.875 C-217.71390027 33.97559962 -219.17780052 34.07619955 -220.64170074 34.17679977 C-222.81870764 34.32640499 -224.99571471 34.47600775 -227.1727227 34.62559706 C-232.73751408 35.00800001 -238.30227178 35.39089125 -243.8670131 35.77402204 C-248.33534897 36.08157162 -252.80378492 36.38763899 -257.27224731 36.69334412 C-259.59068047 36.85265422 -261.90911119 37.01199972 -264.22753906 37.17138672 C-265.24937853 37.24096557 -266.27121799 37.31054441 -267.32402229 37.38223171 C-269.25288526 37.51521401 -271.18151702 37.65160382 -273.10987091 37.79177475 C-275.14637513 37.93849885 -277.1836457 38.07477137 -279.22136688 38.20349503 C-280.27799782 38.27718182 -281.33462875 38.35086861 -282.42327881 38.42678833 C-283.37279293 38.48892076 -284.32230705 38.5510532 -285.30059433 38.61506844 C-288.1831924 39.02612299 -290.40239952 39.68585597 -293 41 C-295.25285571 43.73702991 -295.25285571 43.73702991 -294.88671875 46.4296875 C-293.77656313 49.64767164 -292.39025145 50.91309582 -289.8125 53.125 C-288.46285156 54.28515625 -288.46285156 54.28515625 -287.0859375 55.46875 C-281.98823135 59.6501596 -276.81582493 63.72506378 -271.59521484 67.75146484 C-270.19569595 68.84683362 -268.82387168 69.97739696 -267.45703125 71.11328125 C-258.36503859 78.62825572 -250.02637702 80.65460143 -238.33984375 80.4140625 C-237.09001205 80.400336 -235.84018036 80.3866095 -234.55247498 80.37246704 C-218.1068113 80.12375767 -201.69943735 78.79879467 -185.30413437 77.57765961 C-177.65511998 77.01225006 -170.00405646 76.47460202 -162.3534565 75.93115616 C-159.35097155 75.7175966 -156.34857257 75.50285558 -153.34617615 75.28805542 C-131.96819501 73.76344876 -110.5798399 72.40907962 -89.18994141 71.06399918 C-80.35819957 70.5080543 -71.52674541 69.94754662 -62.6953125 69.38671875 C-61.75939522 69.32730795 -60.82347794 69.26789715 -59.85919952 69.20668602 C-42.09056946 68.07785725 -24.32525999 66.90511498 -6.5625 65.6875 C-5.36386322 65.60618835 -4.16522644 65.52487671 -2.93026733 65.44110107 C0.35789301 65.21752267 3.64578217 64.99036163 6.93359375 64.76171875 C7.86732819 64.69845901 8.80106262 64.63519928 9.76309204 64.57002258 C14.55065448 64.23150892 19.25848625 63.7471745 24 63 C16.59121174 55.34425213 8.53184836 48.53650524 0.11474609 42.02807617 C-3.31561162 39.36413481 -6.60729823 36.62373379 -9.8125 33.6875 C-19.02557962 25.36325181 -26.88276402 21.61550129 -39.28857422 21.79907227 C-40.60395329 21.80978303 -40.60395329 21.80978303 -41.94590569 21.82071018 C-50.78668935 21.93478098 -59.57175469 22.52181319 -68.3828125 23.21484375 Z M12.38671875 99.03125 C10.78036179 99.14425667 9.17396581 99.25670978 7.5675354 99.3686676 C4.10179122 99.61129818 0.63633219 99.8575646 -2.82894897 100.10671997 C-8.46016205 100.51147937 -14.09196448 100.90759777 -19.72387695 101.30249023 C-26.92422431 101.80784446 -34.12443974 102.31500901 -41.32450771 102.82432842 C-62.70552937 104.33627699 -84.08895352 105.81343368 -105.47257042 107.28815365 C-112.93762424 107.80310058 -120.4025239 108.32021425 -127.86730766 108.83906078 C-150.33576886 110.40009796 -172.80400826 111.95083661 -195.28380394 113.34066963 C-198.05779506 113.51243124 -200.83168474 113.68574344 -203.60554504 113.85960388 C-205.37154966 113.97015289 -207.1375561 114.08067287 -208.90356445 114.19116211 C-210.1764682 114.27083174 -210.1764682 114.27083174 -211.47508717 114.35211086 C-216.36210295 114.6565574 -221.24966095 114.94857002 -226.13801003 115.23075676 C-229.07110542 115.40254526 -232.00347643 115.58486295 -234.93575287 115.77005768 C-236.89234559 115.89008389 -238.84977027 115.99630345 -240.80718994 116.10198975 C-241.95870544 116.17637268 -243.11022095 116.25075562 -244.29663086 116.32739258 C-245.78035439 116.41444206 -245.78035439 116.41444206 -247.29405212 116.50325012 C-251.38968801 117.2551148 -254.08591372 119.08591372 -257 122 C-258.15120582 125.27732839 -258.12270442 128.41823014 -258.1184845 131.86865234 C-258.11940157 133.07946976 -258.12031864 134.29028717 -258.1212635 135.53779602 C-258.11715731 136.88717682 -258.1129464 138.23655731 -258.10864258 139.5859375 C-258.1076969 141.02414428 -258.10717482 142.46235139 -258.1070385 143.90055847 C-258.10527252 147.87978306 -258.09699912 151.8589716 -258.08752418 155.83818436 C-258.08009951 159.26714157 -258.07621455 162.69609922 -258.07232529 166.12506199 C-258.06146334 175.64399108 -258.04279207 185.16289228 -258.02090651 194.6818018 C-258.00397305 202.06960316 -257.98947738 209.45740641 -257.97601318 216.84521484 C-257.92901085 242.10371493 -257.86045332 267.36205989 -257.76426506 292.62042236 C-257.71876949 304.64130898 -257.67928472 316.66215874 -257.65356445 328.68310547 C-257.63062555 339.40272622 -257.59737253 350.12225437 -257.55129844 360.84180164 C-257.52750651 366.45233817 -257.50868058 372.06278462 -257.50238609 377.67337036 C-257.49636494 382.88153449 -257.47647481 388.08945795 -257.44572449 393.29753304 C-257.43693012 395.2011047 -257.43322457 397.10470772 -257.43499184 399.00829887 C-257.43664162 401.60346805 -257.41997727 404.19790063 -257.39872742 406.79296875 C-257.40599878 407.9184303 -257.40599878 407.9184303 -257.41341704 409.06662846 C-257.34975866 413.77099514 -256.49784512 417.0088742 -254 421 C-248.6061494 425.01081198 -243.59579458 425.17504314 -237.05224609 425.14501953 C-236.26002844 425.14260317 -235.46781078 425.14018681 -234.65158653 425.13769722 C-225.13006556 425.05425468 -215.6571993 424.36944658 -206.1640625 423.6796875 C-204.15581888 423.53862741 -202.14753196 423.39818273 -200.13920593 423.25830078 C-195.86303345 422.95943341 -191.58713904 422.65695325 -187.31143188 422.35150146 C-177.01446181 421.61626267 -166.71610437 420.90082223 -156.41789436 420.18320084 C-152.88024088 419.93650346 -149.34263791 419.68909062 -145.80503845 419.44161987 C-124.87639654 417.9798049 -103.94300745 416.5970673 -83.0071106 415.24362183 C-77.33849146 414.87705395 -71.67008908 414.50720585 -66.00170898 414.13696289 C-50.35734639 413.11622766 -34.71276604 412.1013052 -19.06511021 411.132164 C-11.94477697 410.69104137 -4.8249562 410.24224345 2.29454136 409.78783417 C7.21964579 409.47413926 12.14524912 409.17128911 17.07155609 408.8771162 C20.06576272 408.69568495 23.05922542 408.50373491 26.05257797 408.3087635 C28.07457046 408.18022855 30.0973599 408.06442596 32.12014771 407.94908142 C40.9789097 407.41420273 40.9789097 407.41420273 49 404 C52.60247952 399.54400814 52.41713942 395.45644787 52.36076355 389.99093628 C52.36332682 389.08223223 52.3658901 388.17352818 52.36853105 387.23728764 C52.37347326 384.19170278 52.35696843 381.14661343 52.34057617 378.10107422 C52.33972998 375.91804008 52.34020489 373.73500508 52.34190369 371.55197144 C52.34276552 365.62242853 52.32510786 359.69306716 52.30418181 353.76356649 C52.28543962 347.56432101 52.28366627 341.36507145 52.28010559 335.165802 C52.27130592 324.08984805 52.24963464 313.01396922 52.22117744 301.93804957 C52.18533388 287.91333114 52.16679023 273.88862304 52.15097082 259.86386847 C52.1217902 234.30066088 52.07541048 208.73751478 52.01398629 183.17436492 C51.99286108 174.31133614 51.99286108 174.31133614 52.0703125 170.93359375 C52.08835937 169.77988281 52.10640625 168.62617188 52.125 167.4375 C52.14820313 166.28121094 52.17140625 165.12492187 52.1953125 163.93359375 C52.31517694 160.87612953 52.31517694 160.87612953 50 159 C50.66 159 51.32 159 52 159 C52.05072207 151.54356797 52.08574293 144.08718046 52.10986328 136.63061523 C52.11991901 134.09413999 52.13356535 131.55767632 52.15087891 129.02124023 C52.17514563 125.37480814 52.1864875 121.72852937 52.1953125 118.08203125 C52.20563507 116.94852737 52.21595764 115.8150235 52.22659302 114.64717102 C52.22674408 113.58644882 52.22689514 112.52572662 52.22705078 111.43286133 C52.231492 110.50242508 52.23593323 109.57198883 52.24050903 108.61335754 C51.88497666 104.75016292 50.99263799 102.08551602 48.35697937 99.20324707 C45.02939831 97.50450409 41.9315009 97.6394344 38.28833008 97.74804688 C37.53570546 97.75998833 36.78308084 97.77192978 36.00764942 97.78423309 C28.11895043 97.94449776 20.25426897 98.45530441 12.38671875 99.03125 Z " fill="#FEFEFE" transform="translate(536,28)"/>
<path d="M0 0 C3.75645996 4.71965482 5.44087714 8.71291226 5.33984375 14.80859375 C4.71506687 18.83732742 2.79481133 22.07619738 0 25 C-5.49670041 28.71542386 -9.76355064 29.70204 -16.3203125 30.10546875 C-17.26456085 30.17734909 -18.2088092 30.24922943 -19.18167114 30.32328796 C-22.45341028 30.56672721 -25.72637707 30.78344363 -29 31 C-31.51016053 31.17822465 -34.02024872 31.3574704 -36.53027344 31.53759766 C-44.51739178 32.10471713 -52.50692172 32.63337111 -60.49701691 33.15662003 C-62.90338655 33.31436078 -65.30970189 33.47290713 -67.71600342 33.63168335 C-78.01135158 34.31073701 -88.30717018 34.98237186 -98.60327148 35.64990234 C-102.23368373 35.88527669 -105.86405259 36.12130404 -109.49438477 36.35791016 C-120.44842829 37.07169446 -131.40288169 37.77861276 -142.35797119 38.47616577 C-145.84098865 38.69807237 -149.32384395 38.92230448 -152.80657959 39.14859009 C-156.926425 39.41605769 -161.04658514 39.67805391 -165.16703033 39.93611145 C-166.66814067 40.03095391 -168.16914123 40.12755611 -169.6700058 40.22621155 C-177.49387431 40.73920138 -185.31735482 41.11734317 -193.15771484 41.24487305 C-194.20303092 41.27740661 -194.20303092 41.27740661 -195.26946449 41.31059742 C-200.60913185 41.34956207 -204.69898779 40.14797576 -208.64453125 36.46484375 C-213.01476504 30.74992264 -213.7607585 27.14684394 -213 20 C-211.22149489 14.60350734 -207.82784229 11.78342973 -203 9 C-200.02519226 8.2454834 -200.02519226 8.2454834 -196.6003418 7.88085938 C-195.59392277 7.77249882 -195.59392277 7.77249882 -194.56717205 7.66194916 C-182.29836127 6.43035543 -169.96456652 5.80004473 -157.65878129 5.04571342 C-153.81246432 4.80880472 -149.96651875 4.56600788 -146.12052917 4.32385254 C-138.82828535 3.86554943 -131.53574855 3.41210423 -124.24308079 2.96060228 C-113.63427255 2.30358849 -103.02590894 1.63946648 -92.41755962 0.97509003 C-90.82628069 0.87544099 -89.23500166 0.77579346 -87.64372253 0.67614746 C-86.47393759 0.60288026 -86.47393759 0.60288026 -85.28052062 0.52813292 C-80.74990788 0.24453118 -76.21920848 -0.03762786 -71.68842024 -0.31841135 C-68.15006723 -0.53777717 -64.61177172 -0.75806219 -61.07348633 -0.97851562 C-60.0574086 -1.04168551 -60.0574086 -1.04168551 -59.02080405 -1.10613155 C-51.59894783 -1.56849836 -44.17879618 -2.05027798 -36.76107788 -2.57495117 C-35.76227424 -2.64533262 -35.76227424 -2.64533262 -34.74329275 -2.71713591 C-31.60079391 -2.93907406 -28.45861268 -3.16453571 -25.31676197 -3.39548492 C-6.53606849 -4.73901196 -6.53606849 -4.73901196 0 0 Z " fill="#FEFEFE" transform="translate(536,194)"/>
<path d="M0 0 C3.12546937 3.60385754 5.27698132 7.16521705 5.5625 12 C5.13465633 17.87417789 2.71576137 22.40978215 -1.5625 26.375 C-11.09125864 30.87950408 -22.47367629 30.59732275 -32.84741211 31.23681641 C-34.52415918 31.34494256 -36.20087037 31.45362622 -37.87754822 31.56282043 C-42.40198803 31.85580349 -46.92689998 32.14076077 -51.45195842 32.42400789 C-56.20583544 32.72275396 -60.95927762 33.02827612 -65.71278381 33.33285522 C-73.69390568 33.84321417 -81.67533556 34.34850813 -89.65698242 34.85058594 C-98.86014363 35.42954738 -108.06282328 36.01571712 -117.26526827 36.60594618 C-126.14811196 37.17557473 -135.03122801 37.74083568 -143.91449165 38.30387497 C-147.68099646 38.5426332 -151.44741058 38.78275486 -155.21375847 39.02397537 C-159.65658161 39.30826738 -164.09963466 39.58866601 -168.54288673 39.86617088 C-170.16500877 39.96806534 -171.78705233 40.07121899 -173.40900421 40.17578697 C-201.3415906 41.9737516 -201.3415906 41.9737516 -208 37 C-212.38446827 32.39068721 -213.36792082 28.53708968 -213.27734375 22.34765625 C-212.80537601 18.35254905 -211.41553115 16.24189707 -209 13 C-203.5839622 8.79980742 -199.17820639 7.8270632 -192.50512695 7.39916992 C-191.73814641 7.34684834 -190.97116587 7.29452675 -190.18094349 7.24061966 C-187.61696546 7.06672921 -185.05264479 6.89857103 -182.48828125 6.73046875 C-180.67111143 6.60855301 -178.85396298 6.48631842 -177.03683472 6.36378479 C-172.14435075 6.03498162 -167.25153821 5.7113326 -162.35863876 5.38877869 C-158.29979407 5.12058377 -154.2411522 4.84938642 -150.1825037 4.57824135 C-122.69510303 2.74273248 -95.20399928 0.96813617 -67.70629883 -0.70629883 C-65.3393483 -0.85095702 -62.97240476 -0.99572947 -60.60546875 -1.140625 C-59.4818544 -1.20908127 -58.35824005 -1.27753754 -57.20057678 -1.34806824 C-51.28263466 -1.71422786 -45.36852878 -2.11307513 -39.45556641 -2.55273438 C-38.20568436 -2.6453656 -36.95580231 -2.73799683 -35.66804504 -2.83343506 C-33.30321548 -3.01077006 -30.93867043 -3.19196456 -28.57450867 -3.37799072 C-6.20104398 -5.06207672 -6.20104398 -5.06207672 0 0 Z " fill="#FEFEFE" transform="translate(536,268)"/>
<path d="M0 0 C2.34171067 4.14302657 3.38690846 8.12060947 3.625 12.875 C2.15782691 18.13956225 -0.11644726 21.46815781 -4.375 24.875 C-9.50526976 27.36306949 -14.55855647 28.37427808 -20.23706055 28.67456055 C-20.97812546 28.72376648 -21.71919037 28.77297241 -22.48271179 28.82366943 C-24.90845745 28.98166067 -27.33485922 29.12197511 -29.76171875 29.26171875 C-31.46798178 29.36856509 -33.17418341 29.47639595 -34.88032532 29.5851593 C-38.44966624 29.81017804 -42.01936965 30.02711373 -45.58959961 30.23754883 C-50.13113695 30.50533604 -54.67164263 30.78729696 -59.21197796 31.07467937 C-63.58240647 31.35056558 -67.95330031 31.61872841 -72.32421875 31.88671875 C-73.14114386 31.9375379 -73.95806896 31.98835705 -74.79974937 32.04071617 C-104.82565651 33.89186164 -104.82565651 33.89186164 -111.375 28.875 C-116.10458003 23.78160612 -116.72734282 20.43496964 -116.65625 13.63671875 C-116.1365057 8.53311847 -113.50330792 5.91868482 -109.875 2.5625 C-105.34808864 -0.49316517 -100.46953994 -0.4297935 -95.13745117 -0.78930664 C-93.89523048 -0.87730782 -93.89523048 -0.87730782 -92.62791443 -0.96708679 C-89.89150105 -1.15998586 -87.1547592 -1.34768883 -84.41796875 -1.53515625 C-82.51229686 -1.66800512 -80.60664217 -1.80110091 -78.70100403 -1.93443298 C-74.70568905 -2.21318932 -70.71021286 -2.48946884 -66.71459961 -2.76391602 C-61.60333797 -3.1151179 -56.49246393 -3.47162745 -51.38169384 -3.8299036 C-47.44493808 -4.10542412 -43.50801691 -4.37851755 -39.5710392 -4.65084648 C-37.68721322 -4.78136792 -35.80343234 -4.91254206 -33.91969872 -5.04438972 C-31.28020214 -5.22868667 -28.64050626 -5.40981151 -26.00073242 -5.59008789 C-25.22802002 -5.64462128 -24.45530762 -5.69915466 -23.65917969 -5.75534058 C-14.19187899 -6.39355391 -7.36104971 -6.58620237 0 0 Z " fill="#FEFEFE" transform="translate(439.375,350.125)"/>
<path d="M0 0 C0.33 0 0.66 0 1 0 C1 18.15 1 36.3 1 55 C0.67 55 0.34 55 0 55 C-0.0154612 54.07038704 -0.0154612 54.07038704 -0.03123474 53.12199402 C-0.13926606 46.68205136 -0.25386691 40.24224957 -0.37231445 33.80249023 C-0.41567409 31.39789777 -0.4573484 28.99327431 -0.49731445 26.58862305 C-0.55499189 23.13580984 -0.61869385 19.68315281 -0.68359375 16.23046875 C-0.70030624 15.15226364 -0.71701874 14.07405853 -0.73423767 12.96318054 C-0.75418289 11.96236954 -0.77412811 10.96155853 -0.79467773 9.93041992 C-0.81022202 9.04883713 -0.8257663 8.16725433 -0.84178162 7.25895691 C-0.9174752 4.8322892 -0.9174752 4.8322892 -2 2 C-1.34 1.34 -0.68 0.68 0 0 Z " fill="#F6F6F6" transform="translate(588,201)"/>
<path d="M0 0 C0.33 0 0.66 0 1 0 C1 4.95 1 9.9 1 15 C0.67 15 0.34 15 0 15 C-0.06058594 14.31292969 -0.12117187 13.62585938 -0.18359375 12.91796875 C-0.26738281 12.01691406 -0.35117187 11.11585938 -0.4375 10.1875 C-0.51871094 9.29417969 -0.59992187 8.40085938 -0.68359375 7.48046875 C-0.93489767 4.87256441 -0.93489767 4.87256441 -2 2 C-1.34 1.34 -0.68 0.68 0 0 Z " fill="#BFBFBF" transform="translate(588,201)"/>
<path d="M0 0 C0.33 0 0.66 0 1 0 C1 3.3 1 6.6 1 10 C0.67 10 0.34 10 0 10 C0 6.7 0 3.4 0 0 Z " fill="#373636" transform="translate(586,192)"/>
<path d="M0 0 C0.33 0 0.66 0 1 0 C1 1.65 1 3.3 1 5 C0.67 5 0.34 5 0 5 C0 3.35 0 1.7 0 0 Z " fill="#373737" transform="translate(586,211)"/>
<path d="M0 0 C3 1 3 1 3 1 Z " fill="#393839" transform="translate(456,135)"/>
<path d="M0 0 C2 1 2 1 2 1 Z " fill="#3C3B3A" transform="translate(465,266)"/>
<path d="" fill="#373736" transform="translate(0,0)"/>
<path d="M0 0 C2 1 2 1 2 1 Z " fill="#373636" transform="translate(457,193)"/>
<path d="M0 0 C2 1 2 1 2 1 Z " fill="#373739" transform="translate(452,193)"/>
<path d="M0 0 C2 1 2 1 2 1 Z " fill="#383938" transform="translate(449,193)"/>
<path d="" fill="#393838" transform="translate(0,0)"/>
<path d="M0 0 C2 1 2 1 2 1 Z " fill="#373736" transform="translate(453,135)"/>
<path d="" fill="#363535" transform="translate(0,0)"/>
<path d="" fill="#393737" transform="translate(0,0)"/>
<path d="" fill="#3B3A3C" transform="translate(0,0)"/>
<path d="" fill="#383835" transform="translate(0,0)"/>
<path d="" fill="#3A3938" transform="translate(0,0)"/>
<path d="" fill="#3C3B39" transform="translate(0,0)"/>
<path d="" fill="#3A3B39" transform="translate(0,0)"/>
<path d="" fill="#3A3838" transform="translate(0,0)"/>
<path d="" fill="#393838" transform="translate(0,0)"/>
<path d="" fill="#3B3A38" transform="translate(0,0)"/>
<path d="" fill="#393837" transform="translate(0,0)"/>
<path d="" fill="#383636" transform="translate(0,0)"/>
<path d="" fill="#373636" transform="translate(0,0)"/>
<path d="" fill="#373735" transform="translate(0,0)"/>
<path d="" fill="#393A38" transform="translate(0,0)"/>
<path d="" fill="#3A393B" transform="translate(0,0)"/>
<path d="" fill="#FFFFFF" transform="translate(0,0)"/>
</svg>
