<svg version="1.2" xmlns="http://www.w3.org/2000/svg" viewBox="0 0 702 702" width="702" height="702">
	<title>loom-dark</title>
	<style>
		.s0 { fill: #a1a1a1 } 
	</style>
	<g>
		<path class="s0" d="m127 84.1v76.5l42.8 32c63.9 48 148.9 111.4 174.4 130.2 3.1 2.3 6.3 4.2 7 4.2 2.6 0 208.6-152.2 222-164l2.8-2.5-0.2-76.3-0.3-76.3-13 12.2c-66.4 62.4-112.4 104.1-113.9 103.2-1.1-0.7-66-46.4-86.5-60.9-5.7-4.1-10.8-7.4-11.3-7.4-0.9 0-30.3 20.7-84.1 59.3-7.6 5.4-14.4 9.6-15 9.4-0.7-0.3-9.1-7.9-18.8-16.9-9.6-9-26.3-24.4-36.9-34.3-19.6-18.1-52.6-49.1-63.2-59.4l-5.8-5.5z"/>
		<path class="s0" d="m565.5 202.2c-42 33-127.6 97.3-180.2 135.6-10 7.3-18.5 13.7-18.8 14.1-0.2 0.5-0.5 21.4-0.5 46.5l-0.1 45.7-7.4 14.9-7.4 15-7.5-14.4-7.6-14.3v-46.5-46.4l-4.2-3.1c-30.6-21.8-139.2-103.3-176.8-132.6l-27.5-21.4-0.3 146.1-0.2 146.1 8.7 8.5c4.9 4.7 25.9 24.7 46.8 44.5 20.9 19.8 44.7 42.4 53 50.3l15 14.3 0.3-100.8c0.2-79.7-0.1-101-1-102-0.7-0.7-16.6-11.3-35.3-23.5l-34-22.4-0.3-24.2c-0.1-13.3 0-24.2 0.3-24.2 0.4 0 8.1 5.3 17.3 11.9 22.1 15.7 66.4 46.9 78 54.9l9.2 6.5v126.1l0.1 126.1 17.7 16.6c39 36.6 47.3 44 48.7 43.7 0.7-0.2 14.5-12.7 30.6-27.8 16-15.1 30.3-28.5 31.6-29.7l2.3-2.2v-126.1c0-69.3 0.2-126.5 0.5-127 0.5-0.8 16.8-12.2 78-54.5 11-7.6 21.7-15.1 23.8-16.7l3.7-3v24.5 24.6l-12.7 8.3c-33.7 21.9-57.4 37.9-57.8 39.1-0.3 0.6-0.4 46.3-0.3 101.4l0.3 100.3 51.1-48.3c28.1-26.5 56.1-53 62.2-58.8l11.2-10.5-0.2-146.5-0.3-146.5z"/>
	</g>
</svg>